<?xml version="1.0" encoding="utf-8"?>
<!-- Generator: Adobe Illustrator 23.0.6, SVG Export Plug-In . SVG Version: 6.00 Build 0)  -->
<svg version="1.1" id="Layer_1" xmlns="http://www.w3.org/2000/svg" xmlns:xlink="http://www.w3.org/1999/xlink" x="0px" y="0px"
	 viewBox="0 0 50 42.8" style="enable-background:new 0 0 50 42.8;" xml:space="preserve">
<style type="text/css">
	.st0{clip-path:url(#SVGID_2_);fill:#EC008C;}
	.st1{clip-path:url(#SVGID_4_);fill:#EC008C;}
	.st2{clip-path:url(#SVGID_6_);fill:#EC008C;}
</style>
<g>
	<g>
		<g>
			<defs>
				<rect id="SVGID_1_" x="5.1" y="-6" width="48.6" height="41.2"/>
			</defs>
			<clipPath id="SVGID_2_">
				<use xlink:href="#SVGID_1_"  style="overflow:visible;"/>
			</clipPath>
			<path class="st0" d="M7,30l-1.8-0.1c0,0-0.4-1.4,1.3-3.1s4.1-2.3,6.9,0.6c2.3,2.4,0.3,5.3,0.3,5.3s3.7,1.6,5.7-0.3
				c1.9-1.9-0.6-4-0.6-4l-4.7-4.7l1.2-1.2l3.1,3.1c0,0,2.7-0.9,2-3.5c-1.2-1.2-4.6-4.6-4.6-4.6l1.4-1.4l11.3,11.3
				c0,0,0.7,0.4,0.8-0.8c0.6,0,1.3-0.1,1.3-0.1s0.8,1.4-0.4,2.5c-1.2,1.2-2.9-0.1-2.9-0.1l-5.4-5.4c0,0,0.4,2.5-2.3,3.3
				c0.5,0.5,4.7,3.3,1.1,6.8c-3,3-8.6,0.7-8.6,0.7s-2.4,1-3.7,0.3C8.5,34.2,8.6,33,8.6,33s1.7,0.5,2.9-0.7s0.9-3.2,0.3-3.9
				C10.4,27,7.5,26.1,7,30"/>
		</g>
	</g>
</g>
<g>
	<g>
		<defs>
			<rect id="SVGID_3_" x="5.1" y="-6" width="48.6" height="41.2"/>
		</defs>
		<clipPath id="SVGID_4_">
			<use xlink:href="#SVGID_3_"  style="overflow:visible;"/>
		</clipPath>
		<path class="st1" d="M13.7,6.7L15,5.4l11.5,11.5c0,0,0.8,0.1,0.9-0.9c0.5,0,1.2,0.1,1.2,0.1s0.7,1.3-0.3,2.3s-3-0.1-3-0.1
			l-5.5-5.5l-5,4.9c0,0-0.3,0.2,0.9,1.4c1.2,1.2-3.2,2.9-4.9,1.3c-0.7-0.7-0.1-1.5-0.1-1.5l7.6-7.6L13.7,6.7"/>
	</g>
</g>
<g>
	<g>
		<g>
			<defs>
				<rect id="SVGID_5_" x="5.1" y="-6" width="48.6" height="41.2"/>
			</defs>
			<clipPath id="SVGID_6_">
				<use xlink:href="#SVGID_5_"  style="overflow:visible;"/>
			</clipPath>
			<path class="st2" d="M31.6,16l1.3,1.3c0,0-1.5,1.4-2.6,2.9c-0.7,1-0.8,2.5,0.2,3.4c1.3,1.3,3.3,0.8,4.5-0.4
				c2.4-2.4,1.8-1.7,2.5-2.3l1.3,1.3c0,0-2.4,1.7-2.8,3.6c-0.2,1.1,0.2,1.9,1.1,2.9c1.1,1.1,3.1,1.3,4.1,0.8
				c1.6-0.7,3.2-3.4,2.3-5.9c1-0.1,1.9-0.3,1.9-0.3s1.3,3.9-1.6,6.7c-2.9,2.9-7.1,1.3-8.3,0.1c-0.5-0.5-1.1-1.5-1.3-2.2
				c-0.3-1.1,0-2,0-2s-2.9,1.3-5.1-0.9S27.2,20.4,31.6,16"/>
		</g>
	</g>
</g>
</svg>
