<?xml version="1.0" encoding="utf-8"?>
<!-- Generator: Adobe Illustrator 23.0.6, SVG Export Plug-In . SVG Version: 6.00 Build 0)  -->
<svg version="1.1" id="Layer_1" xmlns="http://www.w3.org/2000/svg" xmlns:xlink="http://www.w3.org/1999/xlink" x="0px" y="0px"
	 viewBox="0 0 50 42.8" style="enable-background:new 0 0 50 42.8;" xml:space="preserve">
<style type="text/css">
	.st0{clip-path:url(#SVGID_2_);fill:#EC008C;}
	.st1{clip-path:url(#SVGID_4_);fill:#EC008C;}
	.st2{clip-path:url(#SVGID_6_);fill:#EC008C;}
	.st3{clip-path:url(#SVGID_8_);fill:#EC008C;}
</style>
<g>
	<g>
		<defs>
			<rect id="SVGID_1_" x="0.7" y="0.6" width="48.6" height="41.2"/>
		</defs>
		<clipPath id="SVGID_2_">
			<use xlink:href="#SVGID_1_"  style="overflow:visible;"/>
		</clipPath>
		<path class="st0" d="M2.6,36.6l-1.8-0.1c0,0-0.4-1.4,1.3-3.1C3.8,31.7,6.2,31.1,9,34c2.3,2.4,0.3,5.3,0.3,5.3S13,40.9,15,39
			c1.9-1.9-0.6-4-0.6-4l-4.7-4.7l1.2-1.2l3.1,3.1c0,0,2.7-0.9,2-3.5c-1.2-1.2-4.6-4.6-4.6-4.6l1.4-1.4L24.1,34c0,0,0.7,0.4,0.8-0.8
			c0.6,0,1.3-0.1,1.3-0.1s0.8,1.4-0.4,2.5c-1.2,1.2-2.9-0.1-2.9-0.1l-5.4-5.4c0,0,0.4,2.5-2.3,3.3c0.5,0.5,4.7,3.3,1.1,6.8
			c-3,3-8.6,0.7-8.6,0.7s-2.4,1-3.7,0.3c0.1-0.4,0.2-1.6,0.2-1.6s1.7,0.5,2.9-0.7S8,35.7,7.4,35C6,33.6,3.1,32.7,2.6,36.6"/>
	</g>
	<g>
		<defs>
			<rect id="SVGID_3_" x="0.7" y="0.6" width="48.6" height="41.2"/>
		</defs>
		<clipPath id="SVGID_4_">
			<use xlink:href="#SVGID_3_"  style="overflow:visible;"/>
		</clipPath>
		<path class="st1" d="M15.5,20.2l1.4-1.4l11.4,11.4c0,0,0.8,0.2,0.7-0.9c0.5-0.1,1.3-0.1,1.3-0.1s0.7,1.4-0.4,2.6
			c-1.2,1.2-2.8,0.1-2.8,0.1L15.5,20.2z"/>
	</g>
	<g>
		<defs>
			<rect id="SVGID_5_" x="0.7" y="0.6" width="48.6" height="41.2"/>
		</defs>
		<clipPath id="SVGID_6_">
			<use xlink:href="#SVGID_5_"  style="overflow:visible;"/>
		</clipPath>
		<path class="st2" d="M26.3,9.3L27.6,8l11.5,11.5c0,0,0.8,0.1,0.9-0.9c0.5,0,1.2,0.1,1.2,0.1s0.7,1.3-0.3,2.3s-3-0.1-3-0.1
			l-5.5-5.5l-5,4.9c0,0-0.3,0.2,0.9,1.4c1.2,1.2-3.2,2.9-4.9,1.3c-0.7-0.7-0.1-1.5-0.1-1.5l7.6-7.6L26.3,9.3"/>
	</g>
	<g>
		<defs>
			<rect id="SVGID_7_" x="0.7" y="0.6" width="48.6" height="41.2"/>
		</defs>
		<clipPath id="SVGID_8_">
			<use xlink:href="#SVGID_7_"  style="overflow:visible;"/>
		</clipPath>
		<path class="st3" d="M35.2,0.6l1.3,1.3c0,0-1.5,1.4-2.6,2.9c-0.7,1-0.8,2.5,0.2,3.4c1.3,1.3,3.3,0.8,4.5-0.4
			c1.3-1.3,2.5-2.3,2.5-2.3l1.3,1.3c0,0-2.4,1.7-2.8,3.6c-0.2,1.1,0.2,1.9,1.1,2.9c1.1,1.1,3.1,1.3,4.1,0.8c1.6-0.7,3.2-3.4,2.3-5.9
			c1-0.1,1.9-0.3,1.9-0.3s1.3,3.9-1.6,6.7c-2.9,2.9-7.1,1.3-8.3,0.1c-0.5-0.5-1.1-1.5-1.3-2.2c-0.3-1.1,0-2,0-2s-2.9,1.3-5.1-0.9
			C30.5,7.4,30.8,5,35.2,0.6"/>
	</g>
</g>
</svg>
