<?xml version="1.0" encoding="utf-8"?>
<!-- Generator: Adobe Illustrator 23.0.6, SVG Export Plug-In . SVG Version: 6.00 Build 0)  -->
<svg version="1.1" id="Layer_1" xmlns="http://www.w3.org/2000/svg" xmlns:xlink="http://www.w3.org/1999/xlink" x="0px" y="0px"
	 viewBox="0 0 100 100" style="enable-background:new 0 0 100 100;" xml:space="preserve">
<style type="text/css">
	.st0{fill:#FFFFFF;}
</style>
<g>
	<path class="st0" d="M50,4.3c0,0-2.2,3-2.2,6.4s1.6,4.2,1.6,6.7s-1.6,4.3-1.6,4.3H50h2.2c0,0-1.6-1.8-1.6-4.3s1.6-3.2,1.6-6.6
		S50,4.3,50,4.3z"/>
	<path class="st0" d="M50,88.5c0,0,2.2-3,2.2-6.4c0-3.4-1.6-4.2-1.6-6.7c0-2.5,1.6-4.3,1.6-4.3H50h-2.2c0,0,1.6,1.8,1.6,4.3
		c0,2.5-1.6,3.2-1.6,6.6C47.8,85.4,50,88.5,50,88.5z"/>
</g>
<g>
	<path class="st0" d="M13,49.9c3.4,0,4.1-1.6,6.6-1.6s4.3,1.6,4.3,1.6v-2.2v-2.2c0,0-1.8,1.6-4.3,1.6s-3.3-1.6-6.7-1.6
		s-6.4,2.2-6.4,2.2S9.6,49.9,13,49.9z"/>
	<path class="st0" d="M84.2,45.6c-3.4,0-4.1,1.6-6.6,1.6c-2.5,0-4.3-1.6-4.3-1.6v2.2v2.2c0,0,1.8-1.6,4.3-1.6s3.3,1.6,6.7,1.6
		c3.4,0,6.4-2.2,6.4-2.2S87.6,45.6,84.2,45.6z"/>
</g>
<g>
	<path class="st0" d="M19.9,16.6c0,0,0.5,3.7,2.9,6.2s4,1.9,5.8,3.8s1.9,4.2,1.9,4.2l1.6-1.5l1.6-1.5c0,0-2.4-0.2-4.1-2
		s-1.1-3.4-3.5-5.9S19.9,16.6,19.9,16.6z"/>
	<path class="st0" d="M78,77.4c0,0-0.5-3.7-2.9-6.2s-4-1.9-5.8-3.8s-1.9-4.2-1.9-4.2L66,64.8l-1.6,1.5c0,0,2.4,0.2,4.1,2
		c1.7,1.8,1.1,3.4,3.5,5.9C74.3,76.7,78,77.4,78,77.4z"/>
</g>
<g>
	<path class="st0" d="M15.2,35.5c3.2,1.3,4.4,0.1,6.7,1.1c2.3,0.9,3.4,3.1,3.4,3.1l0.8-2l0.8-2c0,0-2.3,0.8-4.6-0.2
		c-2.3-0.9-2.4-2.7-5.6-4S10.1,31,10.1,31S12.1,34.2,15.2,35.5z"/>
	<path class="st0" d="M82.8,58.4c-3.2-1.3-4.4-0.1-6.7-1.1c-2.3-0.9-3.4-3.1-3.4-3.1l-0.8,2l-0.8,2c0,0,2.3-0.8,4.6,0.2
		c2.3,0.9,2.4,2.7,5.6,4c3.2,1.3,6.8,0.4,6.8,0.4S85.9,59.7,82.8,58.4z"/>
</g>
<g>
	<path class="st0" d="M32.9,7.9c0,0-0.8,3.6,0.5,6.8c1.3,3.2,3.1,3.2,4.1,5.5s0.2,4.6,0.2,4.6l2-0.9l2-0.9c0,0-2.1-1.1-3.1-3.4
		s0.2-3.5-1.2-6.7C36.1,9.8,32.9,7.9,32.9,7.9z"/>
	<path class="st0" d="M65.8,85.3c0,0,0.8-3.6-0.5-6.8c-1.3-3.2-3.1-3.2-4.1-5.5c-1-2.3-0.2-4.6-0.2-4.6l-2,0.9l-2,0.9
		c0,0,2.1,1.1,3.1,3.4s-0.2,3.5,1.2,6.7C62.6,83.4,65.8,85.3,65.8,85.3z"/>
</g>
<g>
	<path class="st0" d="M62.7,12.9c-1.3,3.2-0.1,4.4-1.1,6.7S58.5,23,58.5,23l2,0.8l2,0.8c0,0-0.8-2.3,0.2-4.6c1-2.3,2.7-2.4,4-5.6
		c1.3-3.2,0.4-6.8,0.4-6.8S64,9.7,62.7,12.9z"/>
	<path class="st0" d="M39.7,80.3c1.3-3.2,0.1-4.4,1.1-6.7c1-2.3,3.1-3.4,3.1-3.4l-2-0.8l-2-0.8c0,0,0.8,2.3-0.2,4.6
		c-1,2.3-2.7,2.4-4,5.6c-1.3,3.2-0.4,6.8-0.4,6.8S38.4,83.5,39.7,80.3z"/>
</g>
</svg>
