<?xml version="1.0" encoding="utf-8"?>
<!-- Generator: Adobe Illustrator 23.0.6, SVG Export Plug-In . SVG Version: 6.00 Build 0)  -->
<svg version="1.1" id="Layer_1" xmlns="http://www.w3.org/2000/svg" xmlns:xlink="http://www.w3.org/1999/xlink" x="0px" y="0px"
	 viewBox="0 0 100 100" style="enable-background:new 0 0 100 100;" xml:space="preserve">
<style type="text/css">
	.st0{fill:#FFFFFF;}
</style>
<path class="st0" d="M89.1,65.3c-3.7-1.7-5.2-0.3-7.9-1.6c-1.9-0.8-3.1-2.4-3.6-3.3c0.9-2.3,1.4-4.7,1.7-7.3
	c0.7-0.5,2.5-1.6,4.8-1.6c3,0,3.9,1.9,8,2c4.1,0,7.6-2.6,7.6-2.6s-3.6-2.6-7.7-2.7c-4.1,0-4.9,1.9-7.9,1.9c-2.2,0-3.9-1-4.6-1.5
	c-0.1-2.2-0.5-4.3-1-6.4c0.4-0.6,1.8-2.5,4.1-3.3c2.8-1,4.3,0.5,8.2-0.9c3.9-1.4,6.4-5,6.4-5s-4.4-1-8.3,0.4c-3.9,1.4-4,3.4-6.8,4.3
	c-2.2,0.7-4.4,0.2-5.2,0c-1-2.1-2.2-4.1-3.6-6c0.1-0.7,0.6-3,2.4-4.6c2.2-2,4.1-1.2,7-4c2.9-2.7,3.8-7.2,3.8-7.2s-4.4,0.6-7.3,3.3
	c-2.9,2.7-2.3,4.8-4.5,6.9c-1.7,1.6-3.8,2-4.6,2.1c-1.7-1.6-3.6-3-5.7-4.1c-0.2-1-0.3-3,0.6-4.9c1.3-2.7,3.4-2.7,5.1-6.4
	c1.8-3.7,1-8.1,1-8.1s-3.9,2.3-5.6,6.1c-1.8,3.7-0.4,5.2-1.7,7.9c-1,2-2.6,3.1-3.4,3.6c-2.5-1-5.2-1.6-8-1.8
	c-0.5-0.7-1.6-2.5-1.6-4.7c0-3,1.9-3.8,1.9-7.9C52.6,3.6,50,0,50,0s-2.6,3.6-2.6,7.6s1.9,5,1.9,8c0,2.2-1,3.9-1.6,4.7
	c-2.8,0.2-5.5,0.8-8.1,1.7c-0.8-0.6-2.3-1.8-3.1-3.8c-1.2-2.7,0.2-4.2-1.4-8c-1.6-3.6-5.4-5.9-5.4-5.9s-1,4.3,0.6,8.1
	c1.6,3.8,3.7,3.8,4.9,6.6c0.8,1.8,0.6,3.7,0.4,4.8c-2.3,1.3-4.5,2.8-6.4,4.6c-1-0.2-2.8-0.7-4.2-2c-2.1-2-1.5-4-4.6-6.8
	c-3.1-2.8-7.7-3.5-7.7-3.5s0.9,4.4,3.9,7.2s4.9,2,7.2,4.1c1.6,1.5,2.2,3.3,2.5,4.2c-1.4,1.8-2.6,3.7-3.5,5.7c-0.9,0.2-2.9,0.6-5-0.2
	c-2.8-1-2.9-3.2-6.8-4.6C7.2,31,3.1,32,3.1,32s2.5,3.8,6.2,5.3c3.8,1.5,5.2,0,8,1.1c2.1,0.7,3.3,2.4,3.8,3.1c-0.6,2.2-1,4.4-1.2,6.8
	c-0.8,0.6-2.5,1.5-4.7,1.4c-3,0-3.9-2-8-2c-4.1-0.1-7.7,2.5-7.7,2.5s3.8,2.6,7.9,2.7c4.1,0.1,4.9-1.8,7.9-1.8c2.2,0,3.9,1,4.6,1.6
	c0.2,2.2,0.6,4.3,1.3,6.4c-0.5,0.8-1.8,2.4-3.8,3.1c-2.7,1.1-4.3-0.3-8.1,1.2c-3.8,1.5-6.1,5-6.1,5s4.5,1.2,8.2-0.2
	c3.8-1.5,3.9-3.6,6.6-4.6c2-0.8,4-0.5,4.9-0.3c1.2,2.3,2.6,4.5,4.3,6.4c-0.1,0.9-0.6,2.9-2.2,4.5c-2.1,2.1-4.1,1.5-6.9,4.4
	c-2.8,2.9-3.5,7.3-3.5,7.3s4.5-0.8,7.3-3.7c2.8-2.9,2.1-4.8,4.1-7c1.6-1.7,3.6-2.1,4.5-2.3c1.9,1.6,4,2.9,6.3,4
	c0.2,0.9,0.5,2.9-0.4,5c-1.1,2.8-3.2,2.9-4.7,6.7c-1.5,3.8-0.4,8.1-0.4,8.1s3.8-2.5,5.3-6.4c1.5-3.8,0-5.2,1.2-8
	c0.8-2,2.3-3.2,3.1-3.8c2,0.6,4.2,1,6.3,1.2c0.5,0.7,1.6,2.5,1.6,4.7c0,3-1.9,3.8-1.9,7.9c0,4,2.6,7.7,2.6,7.7s2.6-3.6,2.6-7.6
	s-1.9-5-1.9-8c0-2.2,1-4,1.6-4.7c2.1-0.2,4.2-0.5,6.2-1.1c0.7,0.4,2.4,1.8,3.2,4c1.1,2.8-0.4,4.2,1.1,8c1.3,3.7,5.1,6.1,5.1,6.1
	s1.1-4.3-0.3-8.1c-1.4-3.9-3.6-3.9-4.6-6.7c-0.8-2.1-0.4-4.1-0.2-5c2-0.9,3.8-2.1,5.5-3.5c0.9,0.2,2.8,0.9,4.1,2.6
	c1.9,2.3,1.1,4.1,3.8,7.3c2.6,3,6.9,4.1,6.9,4.1s-0.3-4.4-3-7.6c-2.7-3.1-4.6-2.5-6.6-4.9c-1.4-1.7-1.8-3.5-1.9-4.5
	c1.7-1.8,3.3-3.9,4.5-6.2c0.9-0.2,3-0.3,5,0.6c2.7,1.2,2.7,3.3,6.5,5c3.7,1.7,8.1,0.8,8.1,0.8S92.8,67,89.1,65.3z M49.7,21.2
	c15.9,0,28.8,12.9,28.8,28.8c0,15.9-12.9,28.8-28.8,28.8c-15.9,0-28.8-12.9-28.8-28.8C20.9,34.1,33.8,21.2,49.7,21.2z"/>
</svg>
