<?xml version="1.0" encoding="utf-8"?>
<!-- Generator: Adobe Illustrator 23.0.6, SVG Export Plug-In . SVG Version: 6.00 Build 0)  -->
<svg version="1.1" id="Layer_1" xmlns="http://www.w3.org/2000/svg" xmlns:xlink="http://www.w3.org/1999/xlink" x="0px" y="0px"
	 viewBox="0 0 100 100" style="enable-background:new 0 0 100 100;" xml:space="preserve">
<style type="text/css">
	.st0{fill:#FFFFFF;}
	.st1{fill:none;stroke:#FFFFFF;stroke-width:0.25;stroke-miterlimit:10;}
</style>
<path class="st0" d="M50,4.3c0,0-2.2,3-2.2,6.4s1.6,4.2,1.6,6.7s-1.6,4.3-1.6,4.3H50h2.2c0,0-1.6-1.8-1.6-4.3s1.6-3.2,1.6-6.6
	S50,4.3,50,4.3z"/>
<path class="st0" d="M49.7,88.2c0,0,2.2-3,2.2-6.4s-1.6-4.2-1.6-6.7s1.6-4.3,1.6-4.3h-2.2h-2.2c0,0,1.6,1.8,1.6,4.3
	s-1.6,3.2-1.6,6.6S49.7,88.2,49.7,88.2z"/>
<path class="st0" d="M14.3,48.7c3.4,0,4.1-1.5,6.6-1.5c2.5,0,4.3,1.7,4.3,1.7l0-2.2l0-2.2c0,0-1.8,1.6-4.3,1.5
	c-2.5,0-3.3-1.6-6.7-1.7s-6.4,2.1-6.4,2.1S10.9,48.6,14.3,48.7z"/>
<path class="st0" d="M85.2,44.8c-3.4,0-4.1,1.6-6.6,1.6s-4.3-1.6-4.3-1.6l0,2.2l0,2.2c0,0,1.8-1.6,4.3-1.6s3.3,1.6,6.7,1.6
	c3.4,0,6.4-2.2,6.4-2.2S88.6,44.8,85.2,44.8z"/>
<path class="st0" d="M18.7,17.8c0,0,0.7,3.7,3.3,6s4.1,1.7,6,3.5c1.9,1.8,2.1,4.1,2.1,4.1l1.5-1.6l1.5-1.6c0,0-2.4-0.1-4.2-1.8
	c-1.8-1.7-1.3-3.3-3.8-5.7S18.7,17.8,18.7,17.8z"/>
<path class="st0" d="M77.6,77.7c0,0-0.3-3.7-2.5-6.4c-2.2-2.6-3.9-2.1-5.6-4.1s-1.7-4.3-1.7-4.3l-1.5,1.5l-1.7,1.4
	c0,0,2.4,0.3,4,2.2c1.6,1.9,0.9,3.5,3.1,6.1C73.9,76.8,77.6,77.7,77.6,77.7z"/>
<path class="st0" d="M15.8,35.6c3.2,1.2,4.4,0,6.7,0.9c2.3,0.8,3.5,3,3.5,3l0.8-2l0.8-2c0,0-2.3,0.9-4.6-0.1
	c-2.3-0.8-2.5-2.6-5.7-3.9c-3.2-1.2-6.6-0.4-6.6-0.4S12.7,34.3,15.8,35.6z"/>
<path class="st0" d="M26.6,73.3c2.4-2.4,1.7-4.1,3.5-5.8c1.7-1.8,4.2-2,4.2-2l-1.6-1.5L31,62.4c0,0-0.1,2.4-1.9,4.2
	c-1.7,1.8-3.5,1.2-5.8,3.7c-2.4,2.4-2.9,6.1-2.9,6.1S24.2,75.7,26.6,73.3z"/>
<path class="st0" d="M17.7,61.5c3.2-1.3,3.2-3,5.6-3.9c2.3-1,4.6-0.1,4.6-0.1l-0.8-2l-0.8-2c0,0-1.1,2.2-3.4,3.1
	c-2.3,1-3.6-0.3-6.8,1c-3.2,1.3-5.1,4.2-5.1,4.2S14.5,62.7,17.7,61.5z"/>
<path class="st0" d="M82.8,59.1c-3.1-1.4-4.4-0.3-6.7-1.4c-2.3-1-3.3-3.2-3.3-3.2l-0.9,2l-0.9,2c0,0,2.3-0.7,4.6,0.4
	c2.3,1,2.3,2.8,5.4,4.2c3.1,1.4,6.8,0.7,6.8,0.7S85.9,60.5,82.8,59.1z"/>
<path class="st0" d="M32.9,7.9c0,0-0.8,3.6,0.5,6.8s3.1,3.2,4.1,5.5s0.2,4.6,0.2,4.6l2-0.9l2-0.9c0,0-2.1-1.1-3.1-3.4
	s0.2-3.5-1.2-6.7C36.1,9.8,32.9,7.9,32.9,7.9z"/>
<path class="st0" d="M64.7,85.5c0,0,0.9-3.6-0.2-6.8c-1.2-3.2-3-3.3-3.9-5.6s0-4.6,0-4.6l-2,0.8l-2,0.8c0,0,2.1,1.2,3,3.5
	c0.9,2.3-0.3,3.5,1,6.7C61.6,83.4,64.7,85.5,64.7,85.5z"/>
<path class="st0" d="M62.9,13.2c-1.5,3.1-0.3,4.4-1.5,6.6c-1.1,2.2-3.3,3.2-3.3,3.2l2,0.9l2,0.9c0,0-0.7-2.3,0.5-4.6
	s2.8-2.2,4.3-5.4c1.5-3.1,0.8-6.8,0.8-6.8S64.3,10.1,62.9,13.2z"/>
<path class="st0" d="M80.5,17.7c0,0-3.7,0.5-6.2,2.8c-2.5,2.3-2,4-3.8,5.8C68.8,28,66.4,28,66.4,28l1.5,1.6l1.5,1.6
	c0,0,0.2-2.4,2-4.1c1.8-1.7,3.4-1,5.9-3.4C79.8,21.4,80.5,17.7,80.5,17.7z"/>
<path class="st0" d="M82.5,32.3c-3.3,1.2-3.3,2.9-5.7,3.6s-4.6,0-4.6,0l0.7,2l0.7,2c0,0,1.2-2.1,3.6-2.9s3.6,0.4,6.8-0.7
	c3.3-1.2,5.3-4.2,5.3-4.2S85.8,31.2,82.5,32.3z"/>
<path class="st0" d="M38.8,80.1c1.3-3.2,0-4.4,1-6.7c1-2.3,3-3.4,3-3.4l-2-0.8l-2-0.8c0,0,0.8,2.3-0.1,4.6c-1,2.3-2.7,2.4-3.9,5.7
	c-1.3,3.2-0.3,6.8-0.3,6.8S37.6,83.3,38.8,80.1z"/>
<circle class="st1" cx="49.7" cy="46.3" r="24.6"/>
</svg>
