<?xml version="1.0" encoding="utf-8"?>
<!-- Generator: Adobe Illustrator 23.0.6, SVG Export Plug-In . SVG Version: 6.00 Build 0)  -->
<svg version="1.1" id="Layer_1" xmlns="http://www.w3.org/2000/svg" xmlns:xlink="http://www.w3.org/1999/xlink" x="0px" y="0px"
	 viewBox="0 0 100 100" style="enable-background:new 0 0 100 100;" xml:space="preserve">
<style type="text/css">
	.st0{fill:#FFFFFF;}
	.st1{fill:none;stroke:#FFFFFF;stroke-miterlimit:10;}
</style>
<path class="st0" d="M50,0c0,0-2.6,3.6-2.6,7.6s1.9,5,1.9,8s-1.9,5.1-1.9,5.1H50h2.6c0,0-1.9-2.1-1.9-5.1s1.9-3.8,1.9-7.9S50,0,50,0
	z"/>
<path class="st0" d="M49.7,100c0,0,2.6-3.6,2.6-7.6s-1.9-5-1.9-8c0-3,1.9-5.1,1.9-5.1h-2.6h-2.6c0,0,1.9,2.1,1.9,5.1
	c0,3-1.9,3.8-1.9,7.9C47.1,96.3,49.7,100,49.7,100z"/>
<path class="st0" d="M7.5,52.9c4.1,0.1,4.9-1.8,7.9-1.8s5.1,2,5.1,2l0-2.6l0-2.6c0,0-2.2,1.9-5.2,1.8c-3,0-3.9-2-8-2
	c-4.1-0.1-7.7,2.5-7.7,2.5S3.4,52.8,7.5,52.9z"/>
<path class="st0" d="M92,48.2c-4.1,0-4.9,1.9-7.9,1.9c-3,0-5.1-1.9-5.1-1.9l0,2.6l0,2.6c0,0,2.2-1.9,5.1-1.9c3,0,3.9,1.9,8,2
	c4.1,0,7.6-2.6,7.6-2.6S96.1,48.3,92,48.2z"/>
<path class="st0" d="M12.7,16.1c0,0,0.9,4.4,3.9,7.2s4.9,2,7.2,4.1s2.6,4.9,2.6,4.9l1.8-1.9l1.8-1.9c0,0-2.9-0.1-5-2.1
	s-1.5-4-4.6-6.8S12.7,16.1,12.7,16.1z"/>
<path class="st0" d="M82.9,87.4c0,0-0.3-4.4-3-7.6c-2.7-3.1-4.6-2.5-6.6-4.9c-2-2.4-2-5.1-2-5.1l-1.8,1.8l-2,1.7
	c0,0,2.8,0.4,4.7,2.7c1.9,2.3,1.1,4.1,3.8,7.3C78.6,86.3,82.9,87.4,82.9,87.4z"/>
<path class="st0" d="M9.3,37.3c3.8,1.5,5.2,0,8,1.1c2.8,1,4.1,3.6,4.1,3.6l0.9-2.4l0.9-2.4c0,0-2.7,1-5.5-0.1
	c-2.8-1-2.9-3.2-6.8-4.6C7.2,31,3.1,32,3.1,32S5.6,35.8,9.3,37.3z"/>
<path class="st0" d="M22.1,82.2c2.8-2.9,2.1-4.8,4.1-7s4.9-2.3,4.9-2.3L29.3,71l-1.9-1.8c0,0-0.1,2.9-2.2,5s-4.1,1.5-6.9,4.4
	c-2.8,2.9-3.5,7.3-3.5,7.3S19.3,85.1,22.1,82.2z"/>
<path class="st0" d="M11.5,68.2c3.8-1.5,3.9-3.6,6.6-4.6c2.7-1.1,5.5-0.2,5.5-0.2l-1-2.4l-1-2.4c0,0-1.3,2.6-4.1,3.6
	c-2.7,1.1-4.3-0.3-8.1,1.2c-3.8,1.5-6.1,5-6.1,5S7.8,69.6,11.5,68.2z"/>
<path class="st0" d="M89.1,65.3c-3.7-1.7-5.2-0.3-7.9-1.6c-2.7-1.2-3.9-3.9-3.9-3.9l-1,2.3l-1,2.3c0,0,2.8-0.8,5.5,0.5
	c2.7,1.2,2.7,3.3,6.5,5c3.7,1.7,8.1,0.8,8.1,0.8S92.8,67,89.1,65.3z"/>
<path class="st0" d="M29.7,4.3c0,0-1,4.3,0.6,8.1s3.7,3.8,4.9,6.6c1.2,2.7,0.2,5.5,0.2,5.5l2.4-1.1l2.4-1.1c0,0-2.5-1.3-3.7-4.1
	c-1.2-2.7,0.2-4.2-1.4-8C33.5,6.6,29.7,4.3,29.7,4.3z"/>
<path class="st0" d="M67.6,96.7c0,0,1.1-4.3-0.3-8.1c-1.4-3.9-3.6-3.9-4.6-6.7c-1.1-2.8,0-5.5,0-5.5l-2.4,1l-2.4,1
	c0,0,2.5,1.4,3.5,4.2c1.1,2.8-0.4,4.2,1.1,8C63.8,94.3,67.6,96.7,67.6,96.7z"/>
<path class="st0" d="M65.4,10.7c-1.8,3.7-0.4,5.2-1.7,7.9c-1.3,2.7-3.9,3.8-3.9,3.8l2.3,1.1l2.3,1.1c0,0-0.8-2.8,0.5-5.5
	c1.3-2.7,3.4-2.7,5.1-6.4C71.8,9,71,4.6,71,4.6S67.1,6.9,65.4,10.7z"/>
<path class="st0" d="M86.4,15.9c0,0-4.4,0.6-7.3,3.3s-2.3,4.8-4.5,6.9c-2.2,2-5,2.1-5,2.1l1.8,1.9l1.8,1.9c0,0,0.2-2.9,2.4-4.9
	c2.2-2,4.1-1.2,7-4C85.5,20.4,86.4,15.9,86.4,15.9z"/>
<path class="st0" d="M88.8,33.4c-3.9,1.4-4,3.4-6.8,4.3s-5.5-0.1-5.5-0.1l0.9,2.4l0.9,2.4c0,0,1.4-2.5,4.2-3.5s4.3,0.5,8.2-0.9
	c3.9-1.4,6.4-5,6.4-5S92.7,32,88.8,33.4z"/>
<path class="st0" d="M36.8,90.3c1.5-3.8,0-5.2,1.2-8c1.1-2.8,3.6-4.1,3.6-4.1l-2.4-0.9l-2.4-0.9c0,0,1,2.7-0.2,5.5
	c-1.1,2.8-3.2,2.9-4.7,6.7c-1.5,3.8-0.4,8.1-0.4,8.1S35.3,94.2,36.8,90.3z"/>
<circle class="st1" cx="49.7" cy="50" r="29.3"/>
</svg>
