<?xml version="1.0" encoding="utf-8"?>
<!-- Generator: Adobe Illustrator 23.0.6, SVG Export Plug-In . SVG Version: 6.00 Build 0)  -->
<svg version="1.1" id="Layer_1" xmlns="http://www.w3.org/2000/svg" xmlns:xlink="http://www.w3.org/1999/xlink" x="0px" y="0px"
	 viewBox="0 0 50 48.3" style="enable-background:new 0 0 50 48.3;" xml:space="preserve">
<style type="text/css">
	.st0{fill:#FCF2F8;}
	.st1{fill:#EA59AF;}
	.st2{fill:#912C09;}
	.st3{fill:#FFFFFF;}
	.st4{fill:#F4CEE7;}
</style>
<path class="st0" d="M40.6,38.4c0,0-0.9-2-2.5-11C36.6,18.5,28.9,10,20.7,6.7C12.6,3.4,7.8,8.4,7.6,15c-6.8,2.9-7.5,6.4-2.3,13.5
	s10.1,8.6,14.1,10.3C23.4,40.6,40.6,38.4,40.6,38.4z"/>
<path class="st1" d="M43,39.5c0,0-7-9-14-12.3c-5.6-2.6,7.5,4.2,12.9,12.3C43.7,42.1,43,39.5,43,39.5z"/>
<path class="st1" d="M44.6,40.2c0,0-5.8-3.2-9.8-3.2c-3.2,0,4.5,0.4,9.4,3.5C45.7,41.4,44.6,40.2,44.6,40.2z"/>
<path class="st1" d="M44.1,40.5c0,0-9.8-3.3-15.3-2.4c-4.4,0.7,6.4-0.5,14.9,2.9C46.3,42,44.1,40.5,44.1,40.5z"/>
<path class="st1" d="M40.4,37.6c0,0-8.9-7.2-16.5-8.7c-6.1-1.3,8.3,2.3,15.5,9C41.7,39.9,40.4,37.6,40.4,37.6z"/>
<path class="st1" d="M43.6,39.8c0,0-8.9-7.2-16.5-8.7c-6.1-1.3,8.3,2.3,15.5,9C44.8,42.1,43.6,39.8,43.6,39.8z"/>
<path class="st2" d="M22.5,29.3c-0.7,0-1.7-0.4-1.6-0.7s0.6-0.6,1.3-0.4s0.5,0.2,0.7,0.5C23.2,29,23,29.4,22.5,29.3z"/>
<path class="st2" d="M27.5,25.8c0.6,0.4,1.3,1.2,1.1,1.4c-0.3,0.2-0.8,0.2-1.4-0.3c-0.5-0.5-0.4-0.4-0.4-0.8
	C26.7,25.8,27.1,25.6,27.5,25.8z"/>
<path class="st2" d="M25.5,29.9c0.6,0.4,1.3,1.2,1.1,1.4c-0.3,0.2-0.8,0.2-1.4-0.3c-0.5-0.5-0.4-0.4-0.4-0.8
	C24.6,29.9,25.1,29.7,25.5,29.9z"/>
<path class="st2" d="M33.3,36.6c0.6-0.3,1.7-0.6,1.8-0.2c0.1,0.3-0.2,0.8-0.9,1.1s-0.5,0.1-0.9,0S32.9,36.9,33.3,36.6z"/>
<path class="st2" d="M27,38c0.6-0.3,1.7-0.6,1.8-0.2c0.1,0.3-0.2,0.8-0.9,1.1c-0.7,0.2-0.5,0.1-0.9,0C26.6,38.7,26.6,38.2,27,38z"/>
<g>
	<path class="st1" d="M43.2,36.9c0,0-7.8-12.4-16.6-17.7c-7-4.3,9.3,6.5,15.2,17.6C43.6,40.1,43.2,36.9,43.2,36.9z"/>
	<path class="st2" d="M25.3,18.8c-0.7-0.2-1.6-0.7-1.4-1s0.7-0.5,1.4-0.1s0.5,0.3,0.6,0.6S25.7,19,25.3,18.8z"/>
</g>
<path class="st3" d="M25.2,25.7c0,0-7.6-5.2-14.7-6.7c-5.8-1.2,7.7,2,13.7,6.8C26,27.3,25.2,25.7,25.2,25.7z"/>
<g>
	<path class="st1" d="M44.4,40.9c0,0-5.6-8.9-11.8-12.7c-5-3.1,6.7,4.6,10.9,12.6C44.8,43.2,44.4,40.9,44.4,40.9z"/>
	<path class="st2" d="M31.6,28c-0.5-0.1-1.1-0.5-1-0.7s0.5-0.3,1-0.1c0.5,0.2,0.3,0.2,0.5,0.4C32.2,27.8,32,28.1,31.6,28z"/>
</g>
<g>
	<path class="st1" d="M41.1,40.2c0,0-6-3.2-10.8-3.4c-3.8-0.1,5.3,0.5,10.2,3.6C42.1,41.4,41.1,40.2,41.1,40.2z"/>
	<path class="st2" d="M29.8,37c-0.3,0.1-0.8,0.1-0.8-0.1s0.2-0.4,0.5-0.4s0.3,0,0.4,0.1C30,36.7,30,37,29.8,37z"/>
</g>
<path class="st4" d="M50,0.7c-3.1-1.7-6-0.2-9.9,4.9c-5.5,7-5.5,12.1-6,16.4c-0.4,3.3,3.4,13.3,5.3,17.9c-1.6-0.5-4.1-1.4-7.8-3
	c-8.4-3.5-19.7-1.6-26.9,3.5c-3.4,2.4-4.8,5.3-4.7,8h38.3c1.7-3.2,3.2-6.1,3.7-7.2c1.4-0.8,3.8-2.2,8.1-4.3L50,0.7L50,0.7z"/>
<path class="st3" d="M37.8,41.8c0,0-12.2,1-21.5,5.5c-7.4,3.6,10.3-4.4,20.4-4.5C39.9,42.7,37.8,41.8,37.8,41.8z"/>
<path class="st1" d="M42.2,39.5c0,0-13.3-0.8-20.8,2.6c-6,2.7,8.6-3.2,20.2-1.8C45.2,40.8,42.2,39.5,42.2,39.5z"/>
<path class="st2" d="M19.3,42.5c0.6-0.3,1.7-0.6,1.8-0.2c0.1,0.3-0.2,0.8-0.9,1.1s-0.5,0.1-0.9,0C18.9,43.2,18.9,42.7,19.3,42.5z"/>
<path class="st3" d="M45.3,13.2c0,0-2.6,8.8-1.8,16.1c0.7,5.8-0.5-8,2.2-15.1C46.6,11.9,45.3,13.2,45.3,13.2z"/>
<path class="st0" d="M49.9,48.3V25.8c-0.9,1.3-1.7,2.6-2.5,3.7c-1,1.6-1.7,5.6-2.2,9.7c-1.4,0.7-3.7,1.7-7.3,3
	c-3.3,1.2-6.2,3.4-8.6,6.2H49.9z"/>
</svg>
